<svg width="0" height="0" class="hidden">
  <symbol version="1.1" xmlns="http://www.w3.org/2000/svg"  xmlns:xlink="http://www.w3.org/1999/xlink" viewBox="0 0 512 512" id="enlarge">
    <g id="icomoon-ignore"></g>
    <path d="M512 0v208l-80-80-96 96-48-48 96-96-80-80zM224 336l-96 96 80 80h-208v-208l80 80 96-96z"></path>
  </symbol>
  <symbol version="1.1" xmlns="http://www.w3.org/2000/svg" xmlns:xlink="http://www.w3.org/1999/xlink"  viewBox="0 0 512 512" id="shrink">
    <g id="icomoon-ignore"></g>
    <path d="M224 288v208l-80-80-96 96-48-48 96-96-80-80zM512 48l-96 96 80 80h-208v-208l80 80 96-96z"></path>
  </symbol>
 
  <symbol version="1.1" xmlns="http://www.w3.org/2000/svg" xmlns:xlink="http://www.w3.org/1999/xlink" viewBox="0 0 512 512" id="circle-up">
    <g id="icomoon-ignore"></g>
    <path d="M0 256c0 141.385 114.615 256 256 256s256-114.615 256-256-114.615-256-256-256-256 114.615-256 256zM464 256c0 114.875-93.125 208-208 208s-208-93.125-208-208 93.125-208 208-208 208 93.125 208 208z"></path>
    <path d="M353.372 334.628l45.256-45.256-142.628-142.627-142.627 142.628 45.254 45.254 97.373-97.372z"></path>
  </symbol>
<symbol version="1.1" xmlns="http://www.w3.org/2000/svg" xmlns:xlink="http://www.w3.org/1999/xlink" id="reset" viewBox="0 0 32 32">
<path d="M32 12h-12l4.485-4.485c-2.267-2.266-5.28-3.515-8.485-3.515s-6.219 1.248-8.485 3.515c-2.266 2.267-3.515 5.28-3.515 8.485s1.248 6.219 3.515 8.485c2.267 2.266 5.28 3.515 8.485 3.515s6.219-1.248 8.485-3.515c0.189-0.189 0.371-0.384 0.546-0.583l3.010 2.634c-2.933 3.349-7.239 5.464-12.041 5.464-8.837 0-16-7.163-16-16s7.163-16 16-16c4.418 0 8.418 1.791 11.313 4.687l4.687-4.687v12z"></path>
</symbol>
</svg>