<svg width="0" height="0" class="hidden">
  <symbol version="1.1" xmlns="http://www.w3.org/2000/svg" viewBox="0 0 512 512" id="enlarge">
    <g id="icomoon-ignore"></g>
    <path d="M512 0v208l-80-80-96 96-48-48 96-96-80-80zM224 336l-96 96 80 80h-208v-208l80 80 96-96z"></path>
  </symbol>
  <symbol version="1.1" xmlns="http://www.w3.org/2000/svg" viewBox="0 0 512 512" id="shrink">
    <g id="icomoon-ignore"></g>
    <path d="M224 288v208l-80-80-96 96-48-48 96-96-80-80zM512 48l-96 96 80 80h-208v-208l80 80 96-96z"></path>
  </symbol>
 
  <symbol version="1.1" xmlns="http://www.w3.org/2000/svg" viewBox="0 0 512 512" id="circle-up">
    <g id="icomoon-ignore"></g>
    <path d="M0 256c0 141.385 114.615 256 256 256s256-114.615 256-256-114.615-256-256-256-256 114.615-256 256zM464 256c0 114.875-93.125 208-208 208s-208-93.125-208-208 93.125-208 208-208 208 93.125 208 208z"></path>
    <path d="M353.372 334.628l45.256-45.256-142.628-142.627-142.627 142.628 45.254 45.254 97.373-97.372z"></path>
  </symbol>

</svg>